/* XPM */
static char * AlfaCAD96_xpm[] = {
"96 96 2 1",
" 	c None",
".	c #FF0000",
"                             ...........                                                        ",
"                         ...................                                                    ",
"                       .......................                                                  ",
"                     ...........................                     .................          ",
"                   ..............................                    .................          ",
"                  ................................                   .................          ",
"                ...................................                 .................           ",
"               .....................................                .................           ",
"              ..................         ............               .................           ",
"             .................             ...........              .................           ",
"            ................                 .........             .................            ",
"           ................                   .........            .................            ",
"          ................                     .........           .................            ",
"         .................                      ........           .................            ",
"         ................                        ........          ................             ",
"        ................                         ........         .................             ",
"       .................                          ........        .................             ",
"       ................                            .......        .................             ",
"      .................                            ........       .................             ",
"      ................                              .......      .................              ",
"     .................                              ........     .................              ",
"     .................                               .......     .................              ",
"    .................                                .......     .................              ",
"    .................                                 .......    ................               ",
"    .................                                 .......    ................               ",
"   ..................                                  .......  .................               ",
"   .................                                   .......  .................               ",
"   .................                                    ......  .................               ",
"  ..................                                    ....... ................                ",
"  ..................                                    ........................                ",
"  ..................                                     .......................                ",
" ...................                                     .......................                ",
" ..................                                       .....................                 ",
" ..................                                       .....................                 ",
" ..................                                       .....................                 ",
" ..................                                        ....................                 ",
" ..................                                        ....................                 ",
" ..................                                        ...................                  ",
"...................                                         ..................                  ",
"...................                                         ..................                  ",
"...................                                         ..................                  ",
"...................                                         ..................                  ",
"...................                                         .................                   ",
"...................                                         .................                   ",
"...................                                         .................                   ",
"...................                                         .................                   ",
"...................                                        .................                    ",
"...................                                        .................                    ",
"...................                                        .................                    ",
"..................                                         .................                    ",
"..................                                         .................                    ",
"...................                                       .................                     ",
"...................                                       .................                     ",
"...................                                       .................                     ",
"...................                                       .................                     ",
"...................                                       ................                      ",
"...................                                      .................                      ",
"...................                                      .................                      ",
"...................                                      .................                      ",
" ..................                                      ................                       ",
" ..................                                     .................                       ",
" ..................                                     .................                       ",
" ..................                                     ................                        ",
" ..................                                     ................                        ",
" ..................                                    .................                        ",
" ..................                                    .................                        ",
"  .................                                    .................                        ",
"  ..................                                  ...................                       ",
"  ..................                                  ...................                       ",
"   .................                                  ...................                       ",
"   .................                                  ....................                   ...",
"   .................                                 .....................                  ....",
"   .................                                 .....................                  ....",
"    .................                               ......................                  ....",
"    .................                               .......................                 ....",
"     ................                               .......................                 ....",
"     .................                             ................  .......               .....",
"      ................                             ................  .......               .... ",
"      ................                            ................   ........              .... ",
"       ................                           ................   .........            ..... ",
"       ................                          ................     .........          ...... ",
"        ................                        ................      ..........        ....... ",
"        ................                        ...............       ............. ..........  ",
"         ................                      ................       ........................  ",
"          ...............                     ................         .......................  ",
"           ...............                   ................          .......................  ",
"            ...............                 ................           ......................   ",
"             ...............               ................             .....................   ",
"              ................           .................              ....................    ",
"               .................       .................                ....................    ",
"                .......................................                  ..................     ",
"                  ....................................                    ................      ",
"                   ................................                       ...............       ",
"                     ............................                          .............        ",
"                        ......................                              ...........         ",
"                            ..............                                    .......           "};
